<?xml version="1.0" encoding="utf-8"?>
<!-- Generator: Adobe Illustrator 15.1.0, SVG Export Plug-In . SVG Version: 6.00 Build 0)  -->
<!DOCTYPE svg PUBLIC "-//W3C//DTD SVG 1.1//EN" "http://www.w3.org/Graphics/SVG/1.1/DTD/svg11.dtd">
<svg version="1.1" id="Layer_1" xmlns="http://www.w3.org/2000/svg" xmlns:xlink="http://www.w3.org/1999/xlink" x="0px" y="0px"
	 width="1203.539px" height="512px" viewBox="0 0 1203.539 512" enable-background="new 0 0 1203.539 512" xml:space="preserve">
<g>
	<path fill="#FFFFFF" d="M138.462,235.15C62.114,235.15,0,297.259,0,373.613c0,76.347,62.114,138.46,138.461,138.46
		s138.456-62.114,138.456-138.46C276.918,297.259,214.808,235.15,138.462,235.15z M138.462,448.173
		c-41.11,0-74.558-33.45-74.558-74.56c0-41.113,33.446-74.562,74.558-74.562c41.105,0,74.552,33.449,74.552,74.562
		C213.013,414.721,179.567,448.173,138.462,448.173z"/>
	<path fill="#FFFFFF" d="M1203.539,235.15h-74.547V128.644h-63.901V235.15h-85.217h-63.904h-85.207V128.649
		c0-34.289,7.19-45.493,9.541-48.288c5.86-7.063,16.702-16.457,43.048-16.457c3.696,0,12.312,0.925,28.413,7.118l22.939-59.647
		C914.803,3.719,898.005,0,883.351,0c-39.425,0-70.452,13.309-92.076,39.374c-16.433,19.515-24.417,48.714-24.417,89.275V235.15
		h-85.21V128.644h-63.905V235.15H479.284v153.771c0,12.494-1.395,23.085-4.15,31.496c-2.051,5.46-5.672,10.473-10.854,15.133
		c-9.62,8.489-22.133,12.622-38.252,12.622c-15.982,0-28.427-4.133-38.011-12.598c-5.65-5.001-9.428-10.171-11.54-15.803
		l-0.305-0.795c-1.023-2.52-3.396-10.493-3.396-30.057V235.15H308.87v153.771c0,22.732,2.586,40.286,7.907,53.642
		c5.806,15.296,15.517,29.033,28.915,40.894c21.505,18.991,48.534,28.617,80.335,28.617c31.929,0,59.028-9.626,80.757-28.811
		c13.324-11.979,22.928-25.903,28.547-41.38l0.257-0.742c5.043-15.032,7.601-32.599,7.601-52.22v-89.871h74.555v213.022h63.905
		V299.051h85.21v213.022h63.904V299.051h85.207l0.009,213.022h63.903l-0.008-213.022h85.217v213.022h63.901V299.051h74.547V235.15z"
		/>
	<path fill="#FFFFFF" d="M915.978,160.596c0,17.646,14.311,31.947,31.952,31.947c17.64,0,31.951-14.302,31.951-31.947
		c0-17.645-14.312-31.953-31.951-31.953C930.288,128.644,915.978,142.952,915.978,160.596z"/>
</g>
</svg>
